HIERARCHY
ROOT Hips
{
	OFFSET 0.000000 0.000000 0.000000 
	CHANNELS 6 Xposition Yposition Zposition Zrotation Yrotation Xrotation
	JOINT LeftUpLeg
	{
		OFFSET 1.363060 -1.794630 0.839290 
		CHANNELS 3 Zrotation Yrotation Xrotation
		JOINT LeftLeg
		{
			OFFSET 2.448110 -6.726130 0.000000 
			CHANNELS 3 Zrotation Yrotation Xrotation
			JOINT LeftFoot
			{
				OFFSET 2.562200 -7.039590 0.000000 
				CHANNELS 3 Zrotation Yrotation Xrotation
				JOINT LeftToeBase
				{
					OFFSET 0.157640 -0.433110 2.322550 
					CHANNELS 3 Zrotation Yrotation Xrotation
					End Site
					{
						OFFSET 0.000000 0.000000 0.000000 
					}
				}
			}
		}
	}
	JOINT RightUpLeg
	{
		OFFSET -1.305520 -1.794630 0.839290 
		CHANNELS 3 Zrotation Yrotation Xrotation
		JOINT RightLeg
		{
			OFFSET -2.542530 -6.985550 0.000000 
			CHANNELS 3 Zrotation Yrotation Xrotation
			JOINT RightFoot
			{
				OFFSET -2.568260 -7.056230 0.000000 
				CHANNELS 3 Zrotation Yrotation Xrotation
				JOINT RightToeBase
				{
					OFFSET -0.164730 -0.452590 2.363150 
					CHANNELS 3 Zrotation Yrotation Xrotation
					End Site
					{
						OFFSET 0.000000 0.000000 0.000000 
					}
				}
			}
		}
	}
	JOINT Spine
	{
		OFFSET 0.028270 2.035590 -0.193380 
		CHANNELS 3 Zrotation Yrotation Xrotation
		JOINT Spine1
		{
			OFFSET 0.056720 2.048850 -0.042750 
			CHANNELS 3 Zrotation Yrotation Xrotation
			JOINT Neck1
			{
				OFFSET -0.054170 1.746240 0.172020 
				CHANNELS 3 Zrotation Yrotation Xrotation
				JOINT Head
				{
					OFFSET 0.104070 1.761360 -0.123970 
					CHANNELS 3 Zrotation Yrotation Xrotation
					End Site
					{
						OFFSET 0.000000 0.000000 0.000000 
					}
				}
			}
			JOINT LeftArm
			{
				OFFSET 3.362410 1.200890 -0.311210 
				CHANNELS 3 Zrotation Yrotation Xrotation
				JOINT LeftForeArm
				{
					OFFSET 4.983000 -0.000000 -0.000000 
					CHANNELS 3 Zrotation Yrotation Xrotation
					JOINT LeftHand
					{
						OFFSET 3.483560 -0.000000 -0.000000 
						CHANNELS 3 Zrotation Yrotation Xrotation
						JOINT LeftHandIndex1
						{
							OFFSET 0.715260 -0.000000 -0.000000 
							CHANNELS 3 Zrotation Yrotation Xrotation
							End Site
							{
								OFFSET 0.000000 0.000000 0.000000 
							}
						}
					}
				}
			}
			JOINT RightArm
			{
				OFFSET -3.136600 1.374050 -0.404650 
				CHANNELS 3 Zrotation Yrotation Xrotation
				JOINT RightForeArm
				{
					OFFSET -5.241900 -0.000000 -0.000000 
					CHANNELS 3 Zrotation Yrotation Xrotation
					JOINT RightHand
					{
						OFFSET -3.444170 -0.000000 -0.000000 
						CHANNELS 3 Zrotation Yrotation Xrotation
						JOINT RightHandIndex1
						{
							OFFSET -0.622530 -0.000000 -0.000000 
							CHANNELS 3 Zrotation Yrotation Xrotation
							End Site
							{
								OFFSET 0.000000 0.000000 0.000000 
							}
						}
					}
				}
			}
		}
	}
}
MOTION
Frames: 15
Frame Time: 0.041667
-0.371383 16.017632 -43.237480 -14.016003 -35.017286 11.674167 -1.009693 20.989893 -50.190612 8.980086 20.443170 48.303647 4.078128 -2.273002 35.292694 0.024800 1.015700 2.792000 1.037726 -2.521645 -3.061709 -1.824034 -7.952026 24.244097 16.923507 -35.132110 8.611112 -2.029200 8.926500 -25.565800 1.046020 1.266317 -2.721476 0.097843 -0.425185 -4.409841 5.901103 9.008854 9.204463 0.837600 4.768200 2.308000 -34.870744 -29.722389 19.400874 7.653816 -12.073467 -3.000409 -3.612895 1.269837 43.446176 -7.125000 0.000000 0.000000 62.782338 -35.942157 58.357609 -122.618136 56.573373 -91.583521 -1.133805 3.560550 -44.257428 7.125000 0.000000 0.000000 
-0.375771 16.017039 -43.226808 -14.063536 -35.115388 11.765782 -0.998610 21.029581 -50.230906 9.029463 20.461163 48.382395 4.036598 -2.175470 35.214350 0.021200 0.940300 2.584400 1.020394 -2.422998 -3.057806 -1.788630 -7.936473 24.181071 16.832327 -34.984905 8.695018 -2.014800 8.896900 -25.473300 1.043757 1.302842 -2.722209 0.079697 -0.404977 -4.409309 5.888874 9.009086 9.197437 0.822700 4.767400 2.288800 -34.886348 -29.727365 19.370883 7.645265 -12.067579 -3.004391 -3.625383 1.294308 43.518099 -7.125000 0.000000 0.000000 62.872488 -36.023630 58.262437 -122.725554 56.542608 -91.675053 -1.139082 3.570271 -44.232516 7.125000 0.000000 0.000000 
-0.384427 16.016802 -43.214002 -14.062539 -35.063368 11.808129 -0.971039 20.967016 -50.250832 9.060805 20.488577 48.462356 4.008536 -2.131738 35.111916 0.016300 0.824600 2.266400 1.035034 -2.449946 -3.025949 -1.775403 -7.913410 24.115797 16.856716 -35.026592 8.688262 -2.017300 8.902000 -25.489300 1.042404 1.282860 -2.719083 0.035840 -0.411407 -4.354944 5.880514 8.989710 9.194850 0.808400 4.758100 2.279500 -34.869607 -29.752365 19.382580 7.663078 -12.075922 -3.006110 -3.624848 1.275398 43.508489 -7.125000 0.000000 0.000000 63.003171 -36.093997 58.281114 -122.580465 56.629312 -91.464123 -1.119195 3.530747 -44.331093 7.125000 0.000000 0.000000 
-0.390474 16.014905 -43.206176 -14.111207 -35.066763 11.841598 -0.919405 20.943362 -50.249746 9.096294 20.510460 48.527260 3.982224 -2.076881 35.042051 0.013800 0.759200 2.086500 1.056091 -2.384333 -2.961476 -1.747407 -7.895880 24.059258 16.829106 -34.980307 8.698220 -2.005000 8.876500 -25.409800 1.043276 1.293442 -2.717041 0.035705 -0.409388 -4.333765 5.878907 8.976927 9.196356 0.809600 4.751800 2.288700 -34.832353 -29.801458 19.320970 7.647352 -12.051867 -2.995462 -3.611977 1.270212 43.420885 -7.125000 0.000000 0.000000 63.114556 -36.102104 58.195856 -122.595630 56.622768 -91.482734 -1.124198 3.532862 -44.330819 7.125000 0.000000 0.000000 
-0.396640 16.013600 -43.197164 -14.137364 -35.066580 11.879949 -0.886072 20.916057 -50.260320 9.129815 20.532130 48.591226 3.951994 -2.013499 34.969355 0.011400 0.688500 1.892200 1.063703 -2.352113 -2.921759 -1.726359 -7.876565 23.994479 16.818068 -34.967864 8.724907 -1.998800 8.863700 -25.369800 1.043273 1.295167 -2.715066 0.025732 -0.408846 -4.309191 5.876074 8.964656 9.195354 0.806000 4.745700 2.286300 -34.801054 -29.834226 19.279711 7.634456 -12.035518 -2.987406 -3.604854 1.265851 43.399312 -7.125000 0.000000 0.000000 63.210758 -36.125637 58.153154 -122.577966 56.636891 -91.449624 -1.123239 3.525222 -44.337070 7.125000 0.000000 0.000000 
-0.402569 16.012296 -43.188982 -14.158050 -35.063691 11.905737 -0.854211 20.887278 -50.264898 9.160952 20.552513 48.650438 3.922766 -1.950737 34.902123 0.009600 0.631500 1.735300 1.070268 -2.327648 -2.882988 -1.710346 -7.860363 23.941071 16.816388 -34.969992 8.741168 -1.995600 8.856900 -25.348700 1.043907 1.292758 -2.712858 0.024655 -0.410893 -4.288964 5.875649 8.955052 9.195160 0.804500 4.740900 2.283100 -34.762744 -29.864181 19.226357 7.611052 -12.012961 -2.975090 -3.595252 1.260309 43.404283 -7.125000 0.000000 0.000000 63.286828 -36.133491 58.126900 -122.556775 56.649262 -91.418692 -1.123163 3.519016 -44.321215 7.125000 0.000000 0.000000 
-0.407905 16.011110 -43.181393 -14.176033 -35.069125 11.926093 -0.827024 20.865505 -50.267732 9.191373 20.571643 48.705808 3.893294 -1.884985 34.840651 0.008200 0.586100 1.610600 1.071709 -2.305876 -2.848821 -1.696610 -7.845158 23.889567 16.816917 -34.977365 8.761678 -1.994000 8.853600 -25.338300 1.044686 1.291004 -2.710860 0.028693 -0.412805 -4.276521 5.876662 8.947076 9.195687 0.803800 4.737000 2.278100 -34.721279 -29.889762 19.165533 7.575849 -11.983791 -2.958820 -3.584466 1.257835 43.456069 -7.125000 0.000000 0.000000 63.344805 -36.131930 58.109729 -122.547403 56.654286 -91.403342 -1.123898 3.515937 -44.272555 7.125000 0.000000 0.000000 
-0.412767 16.010162 -43.174041 -14.189059 -35.080588 11.943755 -0.806337 20.849613 -50.271083 9.220834 20.589548 48.758373 3.863732 -1.817116 34.784931 0.007300 0.550700 1.513200 1.067928 -2.292260 -2.822303 -1.685496 -7.830499 23.837944 16.823344 -34.996083 8.785379 -1.995800 8.857400 -25.350200 1.045747 1.287516 -2.709033 0.036135 -0.415171 -4.269908 5.878295 8.942922 9.196766 0.802200 4.734900 2.269800 -34.681633 -29.907308 19.098157 7.529962 -11.950197 -2.939510 -3.573137 1.258898 43.562656 -7.125000 0.000000 0.000000 63.380637 -36.124591 58.110492 -122.537511 56.658873 -91.388181 -1.123953 3.513374 -44.194682 7.125000 0.000000 0.000000 
-0.417036 16.009569 -43.166927 -14.201783 -35.098016 11.963145 -0.789931 20.840693 -50.275879 9.249516 20.606293 48.808183 3.834554 -1.749163 34.733937 0.006400 0.518500 1.424800 1.061889 -2.284359 -2.802161 -1.674975 -7.815907 23.786888 16.828173 -35.012028 8.810350 -1.999300 8.864600 -25.372600 1.046975 1.284562 -2.707513 0.044036 -0.416839 -4.266570 5.879571 8.940554 9.199772 0.800200 4.733700 2.262100 -34.647351 -29.920929 19.025692 7.476119 -11.912826 -2.918255 -3.560086 1.265854 43.718029 -7.125000 0.000000 0.000000 63.402771 -36.114939 58.118139 -122.528916 56.662925 -91.374485 -1.123005 3.511193 -44.095971 7.125000 0.000000 0.000000 
-0.420712 16.009213 -43.159931 -14.212277 -35.122205 11.986242 -0.780568 20.838699 -50.284792 9.277802 20.621726 48.855674 3.804575 -1.677918 34.685690 0.005600 0.482800 1.326500 1.051529 -2.279792 -2.790414 -1.664889 -7.801333 23.735230 16.831021 -35.024856 8.839684 -2.003600 8.873500 -25.400300 1.047836 1.285159 -2.706467 0.048871 -0.416264 -4.265412 5.879815 8.937628 9.204221 0.797600 4.732300 2.255400 -34.623302 -29.934308 18.957892 7.419755 -11.874485 -2.896548 -3.545768 1.278978 43.898994 -7.125000 0.000000 0.000000 63.419692 -36.107988 58.121924 -122.528909 56.664167 -91.367583 -1.121451 3.509146 -43.991852 7.125000 0.000000 0.000000 
-0.423439 16.009213 -43.153290 -14.221546 -35.149912 12.014715 -0.776656 20.840378 -50.297752 9.304901 20.635412 48.899317 3.773712 -1.603603 34.639866 0.004900 0.450200 1.237200 1.038817 -2.275643 -2.785962 -1.653794 -7.786822 23.686190 16.823901 -35.019225 8.871642 -2.005900 8.878400 -25.415800 1.048090 1.289171 -2.705776 0.047258 -0.413641 -4.262183 5.878697 8.932962 9.210560 0.795100 4.730100 2.253200 -34.606884 -29.949985 18.892625 7.366194 -11.837392 -2.876460 -3.529171 1.299004 44.084278 -7.125000 0.000000 0.000000 63.439222 -36.101502 58.112949 -122.534166 56.663693 -91.365758 -1.119597 3.507322 -43.900308 7.125000 0.000000 0.000000 
-0.425217 16.009094 -43.146769 -14.227279 -35.183278 12.044181 -0.778486 20.845640 -50.311628 9.330502 20.647389 48.939455 3.742788 -1.527809 34.593396 0.004200 0.417100 1.146000 1.020685 -2.269665 -2.787698 -1.643105 -7.773315 23.641511 16.808876 -34.999721 8.907895 -2.007000 8.880600 -25.422600 1.047005 1.300109 -2.705275 0.035621 -0.407415 -4.256198 5.875993 8.923145 9.217234 0.792100 4.725500 2.255200 -34.597742 -29.971914 18.837174 7.320573 -11.803786 -2.859525 -3.513442 1.322454 44.248994 -7.125000 0.000000 0.000000 63.470742 -36.099708 58.084012 -122.549323 56.659978 -91.371802 -1.117616 3.505442 -43.838035 7.125000 0.000000 0.000000 
-0.426048 16.009094 -43.140840 -14.231475 -35.220473 12.076266 -0.783651 20.852565 -50.326316 9.354469 20.657603 48.975552 3.711800 -1.451120 34.546101 0.003700 0.391400 1.075400 0.999451 -2.262115 -2.796998 -1.633333 -7.761805 23.603119 16.786618 -34.968156 8.949288 -2.008400 8.883500 -25.431600 1.045030 1.315751 -2.705023 0.015486 -0.398873 -4.249333 5.871349 8.909077 9.222994 0.787200 4.718700 2.259900 -34.594395 -29.997731 18.789153 7.283909 -11.774447 -2.846352 -3.501115 1.346050 44.376077 -7.125000 0.000000 0.000000 63.511354 -36.099057 58.039588 -122.566970 56.654999 -91.381160 -1.116142 3.503749 -43.813079 7.125000 0.000000 0.000000 
-0.425929 16.008976 -43.135385 -14.231297 -35.264404 12.104500 -0.791434 20.861430 -50.336485 9.377011 20.666515 49.009068 3.681957 -1.376149 34.496555 0.003300 0.370100 1.017000 0.971969 -2.252653 -2.811269 -1.625906 -7.752548 23.571204 16.761752 -34.933044 8.995569 -2.012000 8.891100 -25.455200 1.042251 1.335197 -2.704251 -0.009838 -0.388821 -4.238757 5.865448 8.894843 9.226433 0.780400 4.712000 2.264500 -34.593876 -30.025344 18.744929 7.256458 -11.750164 -2.836859 -3.494669 1.364171 44.456166 -7.125000 0.000000 0.000000 63.550113 -36.097684 57.991135 -122.587007 56.649128 -91.394016 -1.115701 3.502487 -43.824328 7.125000 0.000000 0.000000 
-0.424980 16.008739 -43.130286 -14.230174 -35.314014 12.131816 -0.799741 20.872006 -50.344167 9.398536 20.674675 49.041796 3.654138 -1.306455 34.444865 0.003000 0.351300 0.965300 0.940508 -2.242457 -2.830857 -1.620859 -7.745648 23.544815 16.735860 -34.897987 9.047489 -2.016100 8.899500 -25.481600 1.039203 1.356019 -2.703009 -0.038097 -0.378681 -4.224872 5.859206 8.882464 9.227731 0.772400 4.706100 2.268500 -34.593136 -30.052550 18.705604 7.235707 -11.729983 -2.830189 -3.495399 1.376291 44.488325 -7.125000 0.000000 0.000000 63.577918 -36.095574 57.949519 -122.606781 56.643813 -91.407667 -1.116436 3.501735 -43.859675 7.125000 0.000000 0.000000 
